<svg version="1.2" xmlns="http://www.w3.org/2000/svg" viewBox="0 0 500 500" width="500" height="500">
	<title>38687244_2957376</title>
	<defs>
		<linearGradient id="g1" x2="1" gradientUnits="userSpaceOnUse" gradientTransform="matrix(73.172,0,0,73.172,331.467,126.798)">
			<stop offset="0" stop-color="#e7ffe7"/>
			<stop offset="1" stop-color="#bbeef6"/>
		</linearGradient>
		<linearGradient id="g2" x2="1" gradientUnits="userSpaceOnUse" gradientTransform="matrix(45.745,0,0,45.745,320.776,71.516)">
			<stop offset="0" stop-color="#e7ffe7"/>
			<stop offset="1" stop-color="#bbeef6"/>
		</linearGradient>
		<linearGradient id="g3" x2="1" gradientUnits="userSpaceOnUse" gradientTransform="matrix(22.873,0,0,22.873,412.981,172.255)">
			<stop offset="0" stop-color="#e7ffe7"/>
			<stop offset="1" stop-color="#bbeef6"/>
		</linearGradient>
		<linearGradient id="g4" x2="1" gradientUnits="userSpaceOnUse" gradientTransform="matrix(18.132,0,0,18.132,76.006,180.55)">
			<stop offset="0" stop-color="#e7ffe7"/>
			<stop offset="1" stop-color="#bbeef6"/>
		</linearGradient>
		<linearGradient id="g5" x2="1" gradientUnits="userSpaceOnUse" gradientTransform="matrix(22.873,0,0,22.873,412.981,377.821)">
			<stop offset="0" stop-color="#e7ffe7"/>
			<stop offset="1" stop-color="#bbeef6"/>
		</linearGradient>
		<linearGradient id="g6" x2="1" gradientUnits="userSpaceOnUse" gradientTransform="matrix(14.138,0,0,14.138,398.843,91.838)">
			<stop offset="0" stop-color="#e7ffe7"/>
			<stop offset="1" stop-color="#bbeef6"/>
		</linearGradient>
		<linearGradient id="g7" x2="1" gradientUnits="userSpaceOnUse" gradientTransform="matrix(14.138,0,0,14.138,68.387,357.469)">
			<stop offset="0" stop-color="#e7ffe7"/>
			<stop offset="1" stop-color="#bbeef6"/>
		</linearGradient>
		<linearGradient id="g8" x2="1" gradientUnits="userSpaceOnUse" gradientTransform="matrix(14.138,0,0,14.138,73.304,98.176)">
			<stop offset="0" stop-color="#e7ffe7"/>
			<stop offset="1" stop-color="#bbeef6"/>
		</linearGradient>
		<linearGradient id="g9" x2="1" gradientUnits="userSpaceOnUse" gradientTransform="matrix(7.069,0,0,7.069,412.037,126.412)">
			<stop offset="0" stop-color="#e7ffe7"/>
			<stop offset="1" stop-color="#bbeef6"/>
		</linearGradient>
		<linearGradient id="g10" x2="1" gradientUnits="userSpaceOnUse" gradientTransform="matrix(7.069,0,0,7.069,62.813,160.746)">
			<stop offset="0" stop-color="#e7ffe7"/>
			<stop offset="1" stop-color="#bbeef6"/>
		</linearGradient>
		<linearGradient id="g11" x2="1" gradientUnits="userSpaceOnUse" gradientTransform="matrix(7.069,0,0,7.069,441.799,361.004)">
			<stop offset="0" stop-color="#e7ffe7"/>
			<stop offset="1" stop-color="#bbeef6"/>
		</linearGradient>
		<linearGradient id="g12" x2="1" gradientUnits="userSpaceOnUse" gradientTransform="matrix(7.069,0,0,7.069,149.675,45.438)">
			<stop offset="0" stop-color="#e7ffe7"/>
			<stop offset="1" stop-color="#bbeef6"/>
		</linearGradient>
		<linearGradient id="g13" x2="1" gradientUnits="userSpaceOnUse" gradientTransform="matrix(372.359,0,0,239.08,72.973,131.772)">
			<stop offset="0" stop-color="#e7ffe7"/>
			<stop offset="1" stop-color="#bbeef6"/>
		</linearGradient>
		<linearGradient id="g14" x2="1" gradientUnits="userSpaceOnUse" gradientTransform="matrix(50.232,0,0,158.871,70.678,209.201)">
			<stop offset="0" stop-color="#b2ddef"/>
			<stop offset="1" stop-color="#29a7df"/>
		</linearGradient>
		<linearGradient id="g15" x2="1" gradientUnits="userSpaceOnUse" gradientTransform="matrix(46.62,0,0,139.612,117.18,249.645)">
			<stop offset="0" stop-color="#b2ddef"/>
			<stop offset="1" stop-color="#29a7df"/>
		</linearGradient>
		<linearGradient id="g16" x2="1" gradientUnits="userSpaceOnUse" gradientTransform="matrix(64.086,0,0,99.091,58.922,289.277)">
			<stop offset=".004" stop-color="#3ac3e3"/>
			<stop offset="1" stop-color="#584e9f"/>
		</linearGradient>
		<linearGradient id="g17" x2="1" gradientUnits="userSpaceOnUse" gradientTransform="matrix(53.97,0,0,32.577,92.706,386.527)">
			<stop offset="0" stop-color="#f38c96"/>
			<stop offset="1" stop-color="#ed5391"/>
		</linearGradient>
		<linearGradient id="g18" x2="1" gradientUnits="userSpaceOnUse" gradientTransform="matrix(75.477,0,0,23.914,269.536,309.514)">
			<stop offset="0" stop-color="#f38c96"/>
			<stop offset="1" stop-color="#ed5391"/>
		</linearGradient>
		<linearGradient id="g19" x2="1" gradientUnits="userSpaceOnUse" gradientTransform="matrix(80.441,0,0,115.994,252.529,291.824)">
			<stop offset=".004" stop-color="#3ac3e3"/>
			<stop offset="1" stop-color="#584e9f"/>
		</linearGradient>
		<linearGradient id="g20" x2="1" gradientUnits="userSpaceOnUse" gradientTransform="matrix(77.071,0,0,57.948,226.69,290.52)">
			<stop offset=".004" stop-color="#3ac3e3"/>
			<stop offset="1" stop-color="#584e9f"/>
		</linearGradient>
		<linearGradient id="g21" x2="1" gradientUnits="userSpaceOnUse" gradientTransform="matrix(74.101,0,0,45.348,195.714,216.588)">
			<stop offset="0" stop-color="#75c0df"/>
			<stop offset="1" stop-color="#766cd3"/>
		</linearGradient>
		<linearGradient id="g22" x2="1" gradientUnits="userSpaceOnUse" gradientTransform="matrix(93.941,0,0,4.009,204.937,261.936)">
			<stop offset="0" stop-color="#75c0df"/>
			<stop offset="1" stop-color="#766cd3"/>
		</linearGradient>
		<linearGradient id="g23" x2="1" gradientUnits="userSpaceOnUse" gradientTransform="matrix(27.668,0,0,23.868,353.058,242.077)">
			<stop offset="0" stop-color="#f38c96"/>
			<stop offset="1" stop-color="#ed5391"/>
		</linearGradient>
		<linearGradient id="g24" x2="1" gradientUnits="userSpaceOnUse" gradientTransform="matrix(50.25,-33.591,36.714,54.922,66.244,138.285)">
			<stop offset="0" stop-color="#b2ddef"/>
			<stop offset="1" stop-color="#29a7df"/>
		</linearGradient>
		<linearGradient id="g25" x2="1" gradientUnits="userSpaceOnUse" gradientTransform="matrix(11.007,-7.358,7.358,11.007,84.956,141.562)">
			<stop offset="0" stop-color="#f38c96"/>
			<stop offset="1" stop-color="#ed5391"/>
		</linearGradient>
		<linearGradient id="g26" x2="1" gradientUnits="userSpaceOnUse" gradientTransform="matrix(11.007,-7.358,7.358,11.007,97.728,154.824)">
			<stop offset="0" stop-color="#75c0df"/>
			<stop offset="1" stop-color="#766cd3"/>
		</linearGradient>
		<linearGradient id="g27" x2="1" gradientUnits="userSpaceOnUse" gradientTransform="matrix(35.009,-25.767,25.767,35.009,227.146,139.741)">
			<stop offset="0" stop-color="#f38c96"/>
			<stop offset="1" stop-color="#ed5391"/>
		</linearGradient>
		<linearGradient id="g28" x2="1" gradientUnits="userSpaceOnUse" gradientTransform="matrix(13.005,-9.572,9.572,13.005,251.515,107.995)">
			<stop offset="0" stop-color="#b2ddef"/>
			<stop offset="1" stop-color="#29a7df"/>
		</linearGradient>
		<linearGradient id="g29" x2="1" gradientUnits="userSpaceOnUse" gradientTransform="matrix(13.967,-10.28,10.28,13.967,253.172,91.484)">
			<stop offset="0" stop-color="#75c0df"/>
			<stop offset="1" stop-color="#766cd3"/>
		</linearGradient>
		<linearGradient id="g30" x2="1" gradientUnits="userSpaceOnUse" gradientTransform="matrix(29.974,-0.939,.939,29.974,213.432,164.76)">
			<stop offset="0" stop-color="#75c0df"/>
			<stop offset="1" stop-color="#766cd3"/>
		</linearGradient>
		<linearGradient id="g31" x2="1" gradientUnits="userSpaceOnUse" gradientTransform="matrix(21.958,-0.688,.688,21.958,217.565,168.642)">
			<stop offset="0" stop-color="#b2ddef"/>
			<stop offset="1" stop-color="#29a7df"/>
		</linearGradient>
		<linearGradient id="g32" x2="1" gradientUnits="userSpaceOnUse" gradientTransform="matrix(15.578,-0.488,.486,15.531,241.055,190.705)">
			<stop offset="0" stop-color="#f38c96"/>
			<stop offset="1" stop-color="#ed5391"/>
		</linearGradient>
		<linearGradient id="g33" x2="1" gradientUnits="userSpaceOnUse" gradientTransform="matrix(21.645,0,0,21.648,195.151,141.882)">
			<stop offset="0" stop-color="#f38c96"/>
			<stop offset="1" stop-color="#ed5391"/>
		</linearGradient>
		<linearGradient id="g34" x2="1" gradientUnits="userSpaceOnUse" gradientTransform="matrix(34.31,-22.622,10.848,16.453,88.722,71.082)">
			<stop offset="0" stop-color="#75c0df"/>
			<stop offset="1" stop-color="#766cd3"/>
		</linearGradient>
		<linearGradient id="g35" x2="1" gradientUnits="userSpaceOnUse" gradientTransform="matrix(6.475,-4.27,4.27,6.475,102.866,55.204)">
			<stop offset="0" stop-color="#f38c96"/>
			<stop offset="1" stop-color="#ed5391"/>
		</linearGradient>
		<linearGradient id="g36" x2="1" gradientUnits="userSpaceOnUse" gradientTransform="matrix(24.093,-27.737,9.181,7.975,151.508,191.367)">
			<stop offset="0" stop-color="#f38c96"/>
			<stop offset="1" stop-color="#ed5391"/>
		</linearGradient>
		<linearGradient id="g37" x2="1" gradientUnits="userSpaceOnUse" gradientTransform="matrix(40.618,0,0,40.619,178.117,48.973)">
			<stop offset="0" stop-color="#75c0df"/>
			<stop offset="1" stop-color="#766cd3"/>
		</linearGradient>
		<linearGradient id="g38" x2="1" gradientUnits="userSpaceOnUse" gradientTransform="matrix(19.62,-21.219,21.682,20.047,210.778,87.046)">
			<stop offset="0" stop-color="#f38c96"/>
			<stop offset="1" stop-color="#ed5391"/>
		</linearGradient>
		<linearGradient id="g39" x2="1" gradientUnits="userSpaceOnUse" gradientTransform="matrix(22.641,-24.486,24.486,22.641,209.042,123.049)">
			<stop offset="0" stop-color="#75c0df"/>
			<stop offset="1" stop-color="#766cd3"/>
		</linearGradient>
		<linearGradient id="g40" x2="1" gradientUnits="userSpaceOnUse" gradientTransform="matrix(38.208,0,0,38.208,127.356,75.284)">
			<stop offset="0" stop-color="#f38c96"/>
			<stop offset="1" stop-color="#ed5391"/>
		</linearGradient>
		<linearGradient id="g41" x2="1" gradientUnits="userSpaceOnUse" gradientTransform="matrix(13.508,0,0,19.099,146.456,75.284)">
			<stop offset="0" stop-color="#b2ddef"/>
			<stop offset="1" stop-color="#29a7df"/>
		</linearGradient>
		<linearGradient id="g42" x2="1" gradientUnits="userSpaceOnUse" gradientTransform="matrix(19.109,0,0,27.026,146.456,80.875)">
			<stop offset="0" stop-color="#75c0df"/>
			<stop offset="1" stop-color="#766cd3"/>
		</linearGradient>
	</defs>
	<style>
		.s0 { opacity: .5;fill: url(#g1) } 
		.s1 { opacity: .5;fill: url(#g2) } 
		.s2 { fill: url(#g3) } 
		.s3 { fill: url(#g4) } 
		.s4 { fill: url(#g5) } 
		.s5 { fill: url(#g6) } 
		.s6 { fill: url(#g7) } 
		.s7 { fill: url(#g8) } 
		.s8 { fill: url(#g9) } 
		.s9 { fill: url(#g10) } 
		.s10 { fill: url(#g11) } 
		.s11 { fill: url(#g12) } 
		.s12 { fill: #f1f0fe } 
		.s13 { fill: url(#g13) } 
		.s14 { fill: url(#g14) } 
		.s15 { fill: url(#g15) } 
		.s16 { fill: url(#g16) } 
		.s17 { fill: url(#g17) } 
		.s18 { fill: #8c165a } 
		.s19 { fill: #2e3092 } 
		.s20 { fill: url(#g18) } 
		.s21 { fill: url(#g19) } 
		.s22 { fill: url(#g20) } 
		.s23 { fill: #ffc8b6 } 
		.s24 { fill: #60c4f6 } 
		.s25 { fill: #f2b5a5 } 
		.s26 { fill: url(#g21) } 
		.s27 { fill: url(#g22) } 
		.s28 { fill: #ffffff } 
		.s29 { fill: url(#g23) } 
		.s30 { fill: url(#g24) } 
		.s31 { fill: #0085e6 } 
		.s32 { fill: url(#g25) } 
		.s33 { fill: url(#g26) } 
		.s34 { fill: url(#g27) } 
		.s35 { fill: url(#g28) } 
		.s36 { fill: url(#g29) } 
		.s37 { fill: #1e2278 } 
		.s38 { fill: url(#g30) } 
		.s39 { fill: url(#g31) } 
		.s40 { fill: url(#g32) } 
		.s41 { fill: url(#g33) } 
		.s42 { fill: #8bdefc } 
		.s43 { fill: url(#g34) } 
		.s44 { fill: url(#g35) } 
		.s45 { fill: url(#g36) } 
		.s46 { fill: url(#g37) } 
		.s47 { fill: url(#g38) } 
		.s48 { fill: url(#g39) } 
		.s49 { fill: url(#g40) } 
		.s50 { fill: url(#g41) } 
		.s51 { fill: url(#g42) } 
	</style>
	<g id="OBJECTS">
		<g id="&lt;Group&gt;">
			<g id="&lt;Group&gt;">
				<path id="&lt;Path&gt;" class="s0" d="m404.6 163.4c0 20.2-16.3 36.6-36.5 36.6-20.3 0-36.6-16.4-36.6-36.6 0-20.2 16.3-36.6 36.6-36.6 20.2 0 36.5 16.4 36.5 36.6z"/>
				<path id="&lt;Path&gt;" class="s1" d="m366.5 94.4c0 12.6-10.2 22.9-22.9 22.9-12.6 0-22.8-10.3-22.8-22.9 0-12.6 10.2-22.9 22.8-22.9 12.7 0 22.9 10.3 22.9 22.9z"/>
				<path id="&lt;Path&gt;" class="s2" d="m435.9 183.7c0 6.3-5.2 11.4-11.5 11.4-6.3 0-11.4-5.1-11.4-11.4 0-6.3 5.1-11.4 11.4-11.4 6.3 0 11.5 5.1 11.5 11.4z"/>
				<path id="&lt;Path&gt;" class="s3" d="m94.1 189.6c0 5-4 9.1-9 9.1-5 0-9.1-4.1-9.1-9.1 0-5 4.1-9 9.1-9 5 0 9 4 9 9z"/>
				<path id="&lt;Path&gt;" class="s4" d="m435.9 389.3c0 6.3-5.2 11.4-11.5 11.4-6.3 0-11.4-5.1-11.4-11.4 0-6.4 5.1-11.5 11.4-11.5 6.3 0 11.5 5.1 11.5 11.5z"/>
				<path id="&lt;Path&gt;" class="s5" d="m413 98.9c0 3.9-3.2 7.1-7.1 7.1-3.9 0-7.1-3.2-7.1-7.1 0-3.9 3.2-7.1 7.1-7.1 3.9 0 7.1 3.2 7.1 7.1z"/>
				<path id="&lt;Path&gt;" class="s6" d="m82.5 364.5c0 3.9-3.1 7.1-7 7.1-3.9 0-7.1-3.2-7.1-7.1 0-3.9 3.2-7 7.1-7 3.9 0 7 3.1 7 7z"/>
				<path id="&lt;Path&gt;" class="s7" d="m87.4 105.2c0 3.9-3.1 7.1-7 7.1-3.9 0-7.1-3.2-7.1-7.1 0-3.9 3.2-7 7.1-7 3.9 0 7 3.1 7 7z"/>
				<path id="&lt;Path&gt;" class="s8" d="m419.1 129.9c0 2-1.6 3.6-3.5 3.6-2 0-3.6-1.6-3.6-3.6 0-1.9 1.6-3.5 3.6-3.5 1.9 0 3.5 1.6 3.5 3.5z"/>
				<path id="&lt;Path&gt;" class="s9" d="m69.9 164.3c0 1.9-1.6 3.5-3.6 3.5-1.9 0-3.5-1.6-3.5-3.5 0-2 1.6-3.6 3.5-3.6 2 0 3.6 1.6 3.6 3.6z"/>
				<path id="&lt;Path&gt;" class="s10" d="m448.9 364.5c0 2-1.6 3.6-3.6 3.6-1.9 0-3.5-1.6-3.5-3.6 0-1.9 1.6-3.5 3.5-3.5 2 0 3.6 1.6 3.6 3.5z"/>
				<path id="&lt;Path&gt;" class="s11" d="m156.7 49c0 1.9-1.5 3.5-3.5 3.5-1.9 0-3.5-1.6-3.5-3.5 0-2 1.6-3.6 3.5-3.6 2 0 3.5 1.6 3.5 3.6z"/>
			</g>
			<path id="&lt;Path&gt;" class="s12" d="m431.8 422.5c0 10.3-82.6 18.7-184.5 18.7-101.9 0-184.5-8.4-184.5-18.7 0-10.3 82.6-18.7 184.5-18.7 101.9 0 184.5 8.4 184.5 18.7z"/>
			<path id="&lt;Path&gt;" class="s13" d="m146.4 176c-25.4 18-48.4 41-62.4 69.8-7.6 15.7-12.3 33.3-10.7 50.8 2.7 29.2 21.5 58.2 47.8 67.7 33 11.8 75.3 5.2 93.3-0.4 49.6-15.4 103.3-21 152.6-4.9 11.2 3.6 22.6 8.5 34.3 7.7 20.2-1.4 36.5-20 41.7-40.6 5.1-20.6 1.1-42.5-5.4-62.7-10.3-31.8-26.9-61.6-49.6-85.2-23.4-24.5-94.1-69.5-187-32.2-19.3 7.7-37.5 17.9-54.6 30z"/>
			<g id="&lt;Group&gt;">
				<g id="&lt;Group&gt;">
					<path id="&lt;Path&gt;" class="s14" d="m109.4 326.3c0-7.1 0.2-14.4-2.7-20.9-2.6-6-7.6-10.6-12.2-15.3-9.6-10-17.8-21.7-21.6-35.1-4.3-15.1-2.4-32 5.2-45.8 17.1 13 34.3 28.7 38.7 49.7 3 14-0.2 28.4-1.7 42.7-2.3 22-0.3 44.4 5.8 65.7-1.2 1.5-3.9 0.7-4.9-0.9-2.3-3.6-3.3-12.7-4.3-17.1-1.8-7.5-2.2-15.3-2.3-23z"/>
					<path id="&lt;Path&gt;" class="s15" d="m117.4 343.8c-0.2-3.3-0.5-6.6 0.4-9.8 0.8-2.9 2.5-5.5 3.6-8.4 3.1-8.5-0.1-18 0.9-27 0.9-8.6 5.5-16.2 10-23.6q7.8-12.7 15.5-25.4c4.7 7.2 9.4 14.5 12.4 22.5 4.8 12.9 4.9 27.6-0.5 40.2-5.4 12.6-16.3 22.9-29.5 26.8-2.5 0.8-5.4 1.6-6.6 3.9-0.7 1.4-0.6 3.1-0.5 4.7 0.9 13.3 3.6 27.8 2.6 41.1-8.8 3.1-5.4-10-5.7-14.7-0.7-10.1-1.7-20.2-2.6-30.3z"/>
					<path id="&lt;Path&gt;" class="s16" d="m119.9 357.2c-1.2-5.4-3.1-11-7.3-14.6-2-1.6-4.4-2.7-6.4-4.2-10.1-7.5-9.7-23.5-18.8-32.3-8-7.8-21.5-8.1-28.5-16.8 1 13.9 2.1 28.3 8.5 40.6 6.5 12.4 19.7 22.4 33.5 20.5 1.7-0.3 3.5-0.7 5.1 0 1.4 0.6 2.3 1.9 3.2 3.1 6.4 10 8.7 22.5 6.2 34.1-0.3 1.1 6.3 0.9 7.3-0.2 0.8-0.9-0.2-6-0.2-7.1-0.4-7.8-0.9-15.5-2.6-23.1z"/>
				</g>
				<path id="&lt;Path&gt;" class="s17" d="m141.8 419.1h-44.2l-4.9-32.6h54z"/>
				<path id="&lt;Path&gt;" class="s18" d="m149.3 377.4h-59.2v9.1h59.2z"/>
			</g>
			<g id="&lt;Group&gt;">
				<path id="&lt;Path&gt;" class="s19" d="m338.5 418h3.9l-15.1-95.2h-8.7z"/>
				<path id="&lt;Path&gt;" class="s19" d="m267 418h-3.8l15-95.2h8.8z"/>
				<path id="&lt;Path&gt;" class="s20" d="m345 321.5c0 6.6-16.9 11.9-37.7 11.9-20.9 0-37.8-5.3-37.8-11.9 0-6.6 16.9-12 37.8-12 20.8 0 37.7 5.4 37.7 12z"/>
			</g>
			<g id="&lt;Group&gt;">
				<g id="&lt;Group&gt;">
					<path id="&lt;Path&gt;" class="s19" d="m267 420.7c-7.1 4.3-17.2 7.5-25.5 8.2-1.3 0.1-2.7 0.1-3.8-0.5-1.2-0.6-1.9-2.2-1.3-3.3 2.6-1.9 8.1-3.8 11.7-6.5 2.3-1.8 4.6-3.9 5.8-6.6 0.8-1.9 1-4 2.1-5.7 3.5-5.6 11 0 11 0-1.8 3.6 4.9 11.4 0 14.4z"/>
					<path id="&lt;Path&gt;" class="s21" d="m332.9 302.1c-2.9 10.6-10.4 13.8-18.3 17.4-9.9 4.7-18.1 9.9-24.6 14.5-6.5 4.6-11.3 8.6-14.4 10.6q-0.1 0.1-0.2 0.2c-6.8 4.4-8.4 61.5-8.4 61.5-3.2 0.9-11 3-12.5 0-1.4-3-2.7-62.6-1.5-68.1q0-0.1 0-0.1c0.4-1.5 4.7-6.6 10.8-13q2.1-2.1 4.5-4.5c11-10.8 25.5-23.2 35.5-27.4 2-0.8 3.8-1.3 5.4-1.4 3.6-0.1 24.7 6.9 23.7 10.3z"/>
					<path id="&lt;Path&gt;" class="s22" d="m300.3 339.7c0 0-1.3 6.8-4.2 8.6-1.1 0.7-9.7-0.9-20.5-3.7-7.1-1.7-15.2-4-22.6-6.4-12.5-4.1-23.4-8.5-25.3-11.7-3.1-6.4 1.3-13.4 12-18.5 9.3-4.3 34.3-14.9 34.3-14.9 5.2-3.4 20.8-3.5 29.8 0.1-10 4.2-24.5 16.6-35.5 27.4-3.9 1-6.8 1.8-8.2 2.5 0.9 0.7 2.2 1.3 3.7 2 6.6 3 17.9 6 26.2 8.9 5.7 2 9.9 3.9 10.3 5.7z"/>
					<path id="&lt;Path&gt;" class="s19" d="m294.5 346.3c-0.2 2.3 0.6 2.3 0.4 4.7-0.3 3.7-2.5 7.1-3.4 10.8-0.3 1.3-2.9 9 2.1 6.3 6.4-3.5 20.4-19.6 18.2-25-1.2-2.7-7.5-4.2-12.9-4.2 0 0-3.5 0.7-4.4 7.4z"/>
				</g>
				<g id="&lt;Group&gt;">
					<path id="&lt;Path&gt;" class="s23" d="m270.9 258.2c-2 1.8-4.9 2.4-7.7 2.7-2.7 0.4-5.6 0.6-8 2-2.4 1.4-4.1 4.4-3 7 0.9 2.2 3.5 3.2 5.9 3.7 7.2 1.5 14.7 0.3 21.9-0.9 1.7-0.2 3.6-0.5 5-1.6 1.9-1.4 2.8-3.9 3.4-6.3 1.4-5.8 2-11.9 1.8-17.9 0-2.5-0.3-5.1-1.8-7.1-1.8-2.5-14.1-3-14.4 0.6-0.4 6.5-0.3 15.2-3.1 17.8z"/>
					<path id="&lt;Path&gt;" class="s24" d="m278.5 222c-2.4 4.8-4.1 13-4.5 18.4 3.5 0.7 8.2 2.6 11.7 2.9 3.5 0.4 7.4-0.3 9.8-2.9 2.1-2.2 2.7-5.4 3-8.4 0.6-5 2.2-19.7-5.3-20.7-5.5-0.8-12.7 6.5-14.7 10.7z"/>
					<path id="&lt;Path&gt;" class="s24" d="m280.8 240.6c3.8 23.1 5.5 36.2-6.8 52.5 23.5-3.9 36.8 13.5 58.9 9 5.6-17.3 2.2-38.9 2.7-64.2 0.1-7.3-4.7-20.4-9.5-25.8-6.7-7.4-25.1-4.6-33.7-1.6-13.5 4.7-13.7 17.8-11.6 30.1z"/>
					<path id="&lt;Path&gt;" class="s23" d="m345 255.8c0.2 10.5-17 12.3-21.1 12.3-7.7 0-16.5 0.9-24-0.3-2.6-0.4-14.6-2.5-16.1-4.6-4-5.7 6.1-6.3 7.2-6.4 6-0.5 6.8 1.2 10.7 2.3 6.7 2 29.1-2.8 29-3.6-0.5-4.5-3.6-9.2-5-13.5-0.4-1.5 17.6-7.4 17.9-4 0.4 2.8 1.3 13.7 1.4 17.8z"/>
					<path id="&lt;Path&gt;" class="s24" d="m343.6 238c0.3 1.7-17.2 6.8-17.9 4-1.4-6-13.1-35.6-4.4-33.2 13.3 3.6 20.3 15.4 22.3 29.2z"/>
				</g>
				<g id="&lt;Group&gt;">
					<path id="&lt;Path&gt;" class="s25" d="m311.1 199.7c-0.2-1.1-3.3-7.7-8.7-7.7-4.8 0-9 5.2-7.7 9.9 0 0 0.2 10.1 0.6 14.7 0.9 9.1 12.3 7.6 18.5-2.2 0.8-1.3-1.9-8.8-2.7-14.7z"/>
					<path id="&lt;Path&gt;" class="s23" d="m282.7 190.4c0.4 6.8 2.2 14.7 8.5 17.4 5 2.2 15-0.6 19.9-8.1 3-4.6 4.7-8.6 5.5-14 0.7-3.9-0.5-20.1-17-21.3-17-1.2-18.3 3.4-16.9 26z"/>
					<path id="&lt;Path&gt;" class="s19" d="m279.1 159.2c-2.9 1.4-5.1 4.9-3.7 7.9 1.4 3 5.5 3.5 9 3.6q6.8 0 13.6 0.1c2.4 0.1 5.2 0.3 6.5 2.4 1.9 3 0.7 8.4 3.6 10.4 0.3-1.4 2.4-3.2 3.7-2.6 3.6 1.6 3.8 8.2-1 9.3 0 2.6 0.3 6.7 0.3 9.4 7-2.4 10.2-16.1 10.2-21 0-12.7-6.5-14.1-6.5-14.1 0.3-2.7-4.8-7.6-13.8-8.5-6.4-0.7-15.8 0.4-21.9 3.1z"/>
				</g>
			</g>
			<g id="&lt;Group&gt;">
				<path id="&lt;Path&gt;" class="s19" d="m394 275.2h-271.7v-9.3h271.7z"/>
				<path id="&lt;Path&gt;" class="s19" d="m123 423.2h-3.7l35.5-148h10.3z"/>
				<path id="&lt;Path&gt;" class="s19" d="m395.2 423.2h3.6l-35.4-148h-10.3z"/>
			</g>
			<g id="&lt;Group&gt;">
				<path id="&lt;Path&gt;" class="s26" d="m260.8 218.9c-0.3-1.3-1.5-2.3-2.9-2.3h-60.8c-0.9 0-1.5 0.8-1.4 1.6l9.2 43.7h64.9z"/>
				<path id="&lt;Path&gt;" class="s27" d="m298.2 261.9h-93.3v4h94v-3.3c0-0.4-0.3-0.7-0.7-0.7z"/>
				<path id="&lt;Path&gt;" class="s28" d="m237.6 240.4c0 2.7-2.3 4.9-5 4.9-2.7 0-4.9-2.2-4.9-4.9 0-2.8 2.2-5 4.9-5 2.7 0 5 2.2 5 5z"/>
			</g>
			<g id="&lt;Group&gt;">
				<path id="&lt;Compound Path&gt;" class="s29" d="m377.3 246.4c-1.6-1-3.4-0.9-5.1-0.5v-2.4c0-0.8-0.6-1.4-1.4-1.4h-16.3c-0.8 0-1.4 0.6-1.4 1.4v21c0 0.8 0.6 1.4 1.4 1.4h16.3c0.8 0 1.4-0.6 1.4-1.4v-3.3c1.4 0.2 2.7 0.1 3.7-0.2 3.3-0.9 4.9-3.5 4.8-6.8 0-2.9-0.6-6.3-3.4-7.8zm0 8.2c-0.1 2.3-1.7 3.1-3.8 3.1q-0.6 0-1.3-0.2v-8.4c1.4-0.5 2.9-0.6 4 0.4 1.2 1.2 1.2 3.5 1.1 5.1z"/>
				<g id="&lt;Group&gt;">
					<path id="&lt;Path&gt;" class="s28" d="m356.6 234.9c0.3-0.5 0.7-0.9 1.1-1.4 1.2-1.5 1.3-3.9 0.1-5.6 1.1 0.4 2 1.3 2.4 2.4 0.4 1 0.3 2.3-0.3 3.3-0.2 0.5-0.6 0.9-0.8 1.4-0.7 1.2-0.8 2.8-0.1 4.1-1.8-0.1-3.2-2.6-2.4-4.2z"/>
					<path id="&lt;Path&gt;" class="s28" d="m361.4 234.9c0.3-0.5 0.7-0.9 1.1-1.4 1.2-1.5 1.3-3.9 0.1-5.6 1.1 0.4 2 1.3 2.4 2.4 0.4 1 0.3 2.3-0.2 3.3-0.3 0.5-0.6 0.9-0.9 1.4-0.7 1.2-0.7 2.8-0.1 4.1-1.8-0.1-3.2-2.6-2.4-4.2z"/>
					<path id="&lt;Path&gt;" class="s28" d="m366.3 234.9c0.2-0.5 0.7-0.9 1-1.4 1.3-1.5 1.3-3.9 0.2-5.6 1 0.4 1.9 1.3 2.3 2.4 0.4 1 0.3 2.3-0.2 3.3-0.2 0.5-0.6 0.9-0.9 1.4-0.7 1.2-0.7 2.8-0.1 4.1-1.7-0.1-3.2-2.6-2.3-4.2z"/>
				</g>
			</g>
			<g id="&lt;Group&gt;">
				<g id="&lt;Group&gt;">
					<path id="&lt;Path&gt;" class="s30" d="m78.5 155.8c3.4 8.3 11.7 15 20.7 15.1 4.1 0 8.2-1.2 12.3-1.1 8 0.4 16.1 5 23.4 1.8 11.3-5 9.8-20.7 6.5-28-11.7-26.5-32.4-26.3-39.6-25.1-18.8 3.2-30.9 18.4-23.3 37.3z"/>
					<path id="&lt;Path&gt;" class="s31" d="m114.5 129.8c2 3 1.2 7.2-1.9 9.2-3 2-7.1 1.2-9.1-1.8-2.1-3.1-1.3-7.2 1.8-9.2 3-2.1 7.1-1.2 9.2 1.8z"/>
					<path id="&lt;Path&gt;" class="s32" d="m99.6 139.7c2.1 3 1.3 7.2-1.8 9.2-3 2-7.1 1.2-9.2-1.8-2-3.1-1.2-7.2 1.9-9.2 3-2 7.1-1.2 9.1 1.8z"/>
					<path id="&lt;Path&gt;" class="s33" d="m112.4 153c2 3 1.2 7.1-1.8 9.2-3.1 2-7.2 1.2-9.2-1.9-2-3-1.2-7.1 1.8-9.2 3.1-2 7.2-1.2 9.2 1.9z"/>
					<path id="&lt;Path&gt;" class="s28" d="m129.1 143.8c2.1 3.1 1.2 7.2-1.8 9.2-3 2-7.1 1.2-9.2-1.8-2-3.1-1.2-7.2 1.9-9.2 3-2 7.1-1.2 9.1 1.8z"/>
				</g>
				<g id="&lt;Group&gt;">
					<path id="&lt;Path&gt;" class="s34" d="m253 173.9c-1.1-0.2-1.9-1.3-1.8-2.5l6.9-54.4 7 1-9.6 54.1c-0.2 1.2-1.3 1.9-2.5 1.8z"/>
					<path id="&lt;Path&gt;" class="s35" d="m267.5 102.5l-7-1.1-2.4 15.6 7 1z"/>
					<path id="&lt;Path&gt;" class="s36" d="m260.5 101.4c0 0-3.6-5.4 1.6-10.8 5.2-5.5 5-9.4 5-9.4 0 0 9 12 0.4 21.3z"/>
				</g>
				<g id="&lt;Group&gt;">
					<path id="&lt;Path&gt;" class="s37" d="m244.8 191.4l-2.8 3-7.2-6.8 2.8-3z"/>
					<path id="&lt;Path&gt;" class="s38" d="m239.2 168.3c6 5.7 6.3 15.2 0.6 21.2-5.7 6.1-15.1 6.4-21.2 0.7-6-5.7-6.3-15.2-0.6-21.2 5.6-6 15.1-6.3 21.2-0.7z"/>
					<path id="&lt;Path&gt;" class="s39" d="m236.4 171.3c4.4 4.1 4.7 11.1 0.5 15.5-4.2 4.4-11.1 4.6-15.5 0.5-4.5-4.2-4.7-11.1-0.5-15.5 4.1-4.5 11.1-4.7 15.5-0.5z"/>
					<path id="&lt;Path&gt;" class="s40" d="m245.4 190.8l-4 4.3c-0.3 0.3-0.3 0.8 0.1 1.1l9.1 8.6c1.4 1.3 3.8 1.5 5.3 0.1 1.5-1.5 1.5-4-0.1-5.4l-9.2-8.7c-0.4-0.3-0.9-0.3-1.2 0z"/>
					<g id="&lt;Group&gt;">
						<path id="&lt;Path&gt;" class="s28" d="m223.7 175.1c3.1 3.1 6.3 6 9.6 8.9 0.3 0.2 0.6-0.1 0.4-0.3-3.1-3.2-6.3-6.2-9.5-9.1-0.4-0.3-0.9 0.2-0.5 0.5z"/>
					</g>
					<g id="&lt;Group&gt;">
						<path id="&lt;Path&gt;" class="s28" d="m228.8 172.7c2.2 2.1 4.4 4.3 6.8 6.3 0.2 0.2 0.5-0.1 0.3-0.3-2.1-2.2-4.5-4.3-6.8-6.4-0.2-0.3-0.6 0.1-0.3 0.4z"/>
					</g>
					<g id="&lt;Group&gt;">
						<path id="&lt;Path&gt;" class="s28" d="m222.4 181.8c1.6 1.5 3 3.1 4.7 4.4 0.3 0.3 0.7-0.1 0.5-0.4-1.4-1.6-3.2-3-4.7-4.4-0.3-0.3-0.8 0.1-0.5 0.4z"/>
					</g>
				</g>
				<g id="&lt;Group&gt;">
					<path id="&lt;Compound Path&gt;" class="s19" d="m200.6 141.7l4.2-8.4-2.8-1.4q0.4-2.1 0.3-4.2l2.9-1-3-8.9-2.9 1q-1.2-1.7-2.8-3.2l1.3-2.7-8.4-4.1-1.3 2.7q-2.2-0.4-4.3-0.2l-1-2.9-8.8 3 1 2.9q-1.8 1.2-3.2 2.8l-2.8-1.3-4.1 8.4 2.8 1.3q-0.4 2.1-0.3 4.2l-2.9 1 3 8.9 2.9-1q1.2 1.7 2.8 3.2l-1.3 2.7 8.4 4.1 1.3-2.7q2.2 0.4 4.3 0.3l1 2.8 8.8-3-1-2.9q1.8-1.1 3.2-2.8zm-18.7-7c-3.3-1.6-4.6-5.6-3-8.8 1.6-3.3 5.6-4.6 8.8-3 3.3 1.6 4.7 5.5 3 8.8-1.6 3.3-5.5 4.6-8.8 3z"/>
					<path id="&lt;Compound Path&gt;" class="s41" d="m214.4 159.6l2.2-4.5-1.5-0.7q0.2-1.1 0.2-2.2l1.5-0.6-1.6-4.7-1.5 0.5q-0.7-0.9-1.5-1.6l0.7-1.5-4.5-2.2-0.7 1.5q-1.1-0.3-2.3-0.2l-0.5-1.5-4.7 1.6 0.5 1.5q-0.9 0.7-1.7 1.5l-1.4-0.7-2.2 4.5 1.4 0.7q-0.2 1.1-0.1 2.3l-1.5 0.5 1.6 4.7 1.5-0.5q0.6 0.9 1.5 1.7l-0.7 1.4 4.4 2.2 0.8-1.4q1.1 0.2 2.2 0.1l0.5 1.5 4.8-1.6-0.6-1.5q1-0.6 1.7-1.5zm-10.8-2.1c-2.6-1.3-3.7-4.5-2.4-7.2 1.3-2.7 4.5-3.8 7.2-2.5 2.7 1.4 3.8 4.6 2.5 7.3-1.3 2.6-4.6 3.8-7.3 2.4z"/>
				</g>
				<g id="&lt;Group&gt;">
					<path id="&lt;Path&gt;" class="s28" d="m138.8 65.7l-40.5 26.7-19.2-29.2 40.5-26.7z"/>
					<path id="&lt;Path&gt;" class="s42" d="m133.9 64.9l-34.3 22.6-15.6-23.5 34.3-22.6z"/>
					<path id="&lt;Path&gt;" class="s43" d="m92.5 76.9l6.5-12.6 12.2 0.2 7.3-8.9 10.1 1.3 5.3 8-34.3 22.6z"/>
					<path id="&lt;Path&gt;" class="s44" d="m111.5 54.2c1.2 1.8 0.7 4.2-1.1 5.3-1.8 1.2-4.2 0.7-5.4-1.1-1.2-1.7-0.7-4.2 1.1-5.3 1.8-1.2 4.2-0.7 5.4 1.1z"/>
				</g>
				<g id="&lt;Group&gt;">
					<path id="&lt;Path&gt;" class="s28" d="m203.3 187.7l-24.1 27.8-27.7-24.1 24.1-27.8z"/>
					<path id="&lt;Path&gt;" class="s45" d="m184.8 171.6l-24.1 27.7-9.2-7.9 24.1-27.8z"/>
					<g id="&lt;Group&gt;">
						<path id="&lt;Path&gt;" class="s19" d="m179.6 195.3c0.9-2.4 0.4-5.3-2.7-6.3-2.9-0.9-6.8 3.8-6.9 6l1.7 1c0.1-1.3 2.3-4.9 4.2-4.1 3 1.3 1.4 4.5 0.3 6l2 1.8c1.5-1.9 4.1-4.6 6.2-2.2 1.2 1.3-0.8 5-4.3 6.1l2.2 1.8c6.2-4 6.4-8.4 3.8-10.7-2.2-1.9-4.2-1.3-6.5 0.6z"/>
						<path id="&lt;Path&gt;" class="s19" d="m181.1 181.2l-1.5 1.7c0 0.1-0.5 3.4-0.5 3.4l2 0.7c0 0 0.2-1.7 0.2-2.1 1.7 1.5 7.1 6.3 11 9.7l1.6-1.9c-3.5-3.2-10.7-9.6-12.8-11.5z"/>
					</g>
					<g id="&lt;Group&gt;">
						<path id="&lt;Path&gt;" class="s24" d="m153.7 180.3c-0.5 0.5-0.4 1.4 0.1 1.8l5.9 5.1c0.5 0.5 1.3 0.4 1.8-0.1 0.5-0.6 0.4-1.4-0.1-1.8l-5.9-5.1c-0.5-0.5-1.3-0.4-1.8 0.1z"/>
						<path id="&lt;Path&gt;" class="s24" d="m159.3 173.8c-0.4 0.6-0.4 1.4 0.2 1.9l5.8 5c0.5 0.5 1.4 0.4 1.8-0.1 0.5-0.5 0.4-1.4-0.1-1.8l-5.8-5.1c-0.6-0.5-1.4-0.4-1.9 0.1z"/>
						<path id="&lt;Path&gt;" class="s24" d="m165 167.4c-0.5 0.5-0.5 1.3 0.1 1.8l5.8 5.1c0.6 0.4 1.4 0.4 1.9-0.2 0.4-0.5 0.4-1.3-0.2-1.8l-5.8-5.1c-0.6-0.4-1.4-0.4-1.8 0.2z"/>
					</g>
				</g>
				<path id="&lt;Compound Path&gt;" class="s46" d="m206.7 50.7c-10.3-4.5-22.3 0.1-26.8 10.3-4.6 10.3 0.1 22.3 10.3 26.8 10.2 4.6 22.2 0 26.8-10.3 4.5-10.2-0.1-22.2-10.3-26.8zm-15.4 34.6c-1.4-0.6-2.1-3.7-1.4-8.2l8.5 3.8c-3 3.5-5.7 5-7.1 4.4zm-0.9-11q0.7-2.8 2-6.2l10.9 4.9q-1.6 3.2-3.2 5.6zm-8.5-10.8l7.9 3.5c-0.8 2-1.5 4.1-2 6.1l-6.9-3c-0.1-2.2 0.2-4.4 1-6.6zm23.6-10.2c1.4 0.6 2.1 3.6 1.5 8.1l-8.5-3.7c2.9-3.5 5.6-5 7-4.4zm0.9 11q-0.6 2.8-2 6.1l-10.9-4.8q1.6-3.2 3.2-5.6zm-15.4 0.1l-7.9-3.5c1.1-2 2.5-3.7 4.2-5.1l6.9 3c-1.2 1.8-2.3 3.7-3.2 5.6zm14.9 9.7l7.9 3.5c-1.1 2.1-2.6 3.8-4.3 5.2l-6.8-3.1c1.1-1.7 2.2-3.6 3.2-5.6zm1.1-2.5c0.8-2.1 1.5-4.1 2-6.2l6.9 3.1c0.1 2.2-0.2 4.4-1 6.6zm8.4-6.4l-5.7-2.6c0.4-2.4 0.5-4.6 0.2-6.5 2.8 2.4 4.7 5.6 5.5 9.1zm-14.8-13.3c-1.6 1.1-3.2 2.7-4.7 4.6l-5.8-2.5c3.2-1.8 6.8-2.5 10.5-2.1zm-19.1 21.5l5.7 2.6c-0.4 2.4-0.5 4.6-0.2 6.5-2.8-2.4-4.7-5.6-5.5-9.1zm14.8 13.3c1.6-1.1 3.2-2.7 4.7-4.6l5.8 2.5c-3.1 1.8-6.8 2.5-10.5 2.1z"/>
				<g id="&lt;Group&gt;">
					<g id="&lt;Group&gt;">
						<path id="&lt;Path&gt;" class="s47" d="m232.6 106h-1.3l-0.3-7.7c-0.1-3.5 2.6-6.4 6.1-6.5l6-0.3c2.8-0.1 4.9-2.4 4.8-5.2-0.1-2.7-2.4-4.9-5.2-4.8l-5.3 0.2c-3.9 0.2-7.1-2.9-7.3-6.8l-0.3-8.4 1.3-0.1 0.3 8.5c0.1 3.2 2.8 5.7 6 5.5l5.3-0.2c3.4-0.1 6.4 2.6 6.5 6.1 0.1 3.4-2.6 6.4-6 6.5l-6 0.2c-2.8 0.2-5 2.5-4.9 5.3z"/>
					</g>
					<g id="&lt;Group&gt;">
						<path id="&lt;Path&gt;" class="s48" d="m243.3 113.7l0.6 16c0.2 6.1-4.5 11.2-10.5 11.4-6.1 0.3-11.2-4.4-11.5-10.5l-0.6-16.1c-0.2-5.8 4.2-10.8 9.9-11.3q0.3-0.1 0.7-0.1 0.3 0 0.6 0c5.8 0.1 10.5 4.7 10.8 10.6z"/>
					</g>
					<g id="&lt;Group&gt;">
						<path id="&lt;Path&gt;" class="s24" d="m243.4 117.3l0.1 1.3-22 0.9-0.1-1.3 10.4-0.4-0.6-14.6q0.3-0.1 0.7-0.1 0.3 0 0.6 0l0.6 14.6z"/>
					</g>
					<g id="&lt;Group&gt;">
						<path id="&lt;Path&gt;" class="s28" d="m232.2 111.5c-1.4 0.1-2.5 1.3-2.5 2.7l0.4 8.6c0 1.5 1.2 2.6 2.6 2.5 1.4 0 2.5-1.2 2.5-2.7l-0.3-8.6c-0.1-1.4-1.3-2.5-2.7-2.5z"/>
					</g>
				</g>
				<g id="&lt;Group&gt;">
					<path id="&lt;Path&gt;" class="s49" d="m165.6 94.4c0 5.3-2.2 10-5.6 13.5-3.5 3.5-8.3 5.6-13.5 5.6-10.6 0-19.1-8.6-19.1-19.1 0-10.6 8.5-19.1 19.1-19.1 5.2 0 10 2.1 13.5 5.6 3.4 3.4 5.6 8.2 5.6 13.5z"/>
					<path id="&lt;Path&gt;" class="s50" d="m160 80.9l-13.5 13.5v-19.1c5.2 0 10 2.1 13.5 5.6z"/>
					<path id="&lt;Path&gt;" class="s51" d="m165.6 94.4c0 5.3-2.2 10-5.6 13.5l-13.5-13.5 13.5-13.5c3.4 3.4 5.6 8.2 5.6 13.5z"/>
					<path id="&lt;Path&gt;" class="s19" d="m160 107.9c-3.5 3.5-8.3 5.6-13.5 5.6-10.6 0-19.1-8.6-19.1-19.1h19.1z"/>
				</g>
			</g>
		</g>
	</g>
	<g id="DESIGNED BY FREEPIK">
		<g id="&lt;Group&gt;">
		</g>
	</g>
</svg>