<svg width="12" height="14" viewBox="0 0 12 14" fill="none" xmlns="http://www.w3.org/2000/svg">
<path fill-rule="evenodd" clip-rule="evenodd" d="M5.69767 0.976744C3.09038 0.976744 0.976744 3.09038 0.976744 5.69767C0.976744 7.26156 1.83439 8.44355 2.95694 9.61274C3.22574 9.89272 3.50442 10.1668 3.78708 10.4448L3.81956 10.4767C4.1114 10.7638 4.4072 11.0553 4.68857 11.3519C5.05114 11.734 5.3998 12.1344 5.69767 12.5633C5.99555 12.1344 6.3442 11.734 6.70678 11.3519C6.98815 11.0553 7.28395 10.7638 7.57578 10.4767L7.60826 10.4448C7.89092 10.1668 8.1696 9.89272 8.43841 9.61274C9.56096 8.44355 10.4186 7.26156 10.4186 5.69767C10.4186 3.09038 8.30497 0.976744 5.69767 0.976744ZM0 5.69767C0 2.55094 2.55094 0 5.69767 0C8.84441 0 11.3953 2.55094 11.3953 5.69767C11.3953 7.66197 10.2995 9.08463 9.14298 10.2892C8.86421 10.5796 8.57651 10.8625 8.2965 11.1379L8.2607 11.1731C7.9675 11.4615 7.68336 11.7417 7.41531 12.0242C6.87717 12.5913 6.42783 13.1434 6.13449 13.73C6.05176 13.8955 5.88266 14 5.69767 14C5.51269 14 5.34359 13.8955 5.26086 13.73C4.96752 13.1434 4.51818 12.5913 3.98004 12.0242C3.71199 11.7417 3.42785 11.4615 3.13465 11.1731L3.09885 11.1379C2.81883 10.8625 2.53114 10.5796 2.25236 10.2892C1.09584 9.08463 0 7.66197 0 5.69767ZM5.69767 3.90698C4.88851 3.90698 4.23256 4.56293 4.23256 5.37209C4.23256 6.18125 4.88851 6.83721 5.69767 6.83721C6.50683 6.83721 7.16279 6.18125 7.16279 5.37209C7.16279 4.56293 6.50683 3.90698 5.69767 3.90698ZM3.25581 5.37209C3.25581 4.02349 4.34907 2.93023 5.69767 2.93023C7.04628 2.93023 8.13953 4.02349 8.13953 5.37209C8.13953 6.72069 7.04628 7.81395 5.69767 7.81395C4.34907 7.81395 3.25581 6.72069 3.25581 5.37209Z" fill="#FFA000"/>
</svg>
