<svg width="112" height="47" viewBox="0 0 112 47" fill="none" xmlns="http://www.w3.org/2000/svg">
<path d="M71.0001 47.0001C64.9001 40.4001 59.4001 34.6001 53.4001 28.2001C47.8001 34.6001 42.6001 40.5001 36.9001 47.0001C33.7001 43.6001 30.6001 40.5001 27.9001 37.3001C27.4001 36.7001 28.1001 35.4 28.7001 34.6C38.2334 23.7334 47.8668 12.9334 57.6001 2.20009C58.3001 1.40009 59.9001 0.400038 61.2001 0.400038C66.4001 0.200038 71.6001 0.300062 77.8001 0.300062C72.7001 6.10006 68.4001 11.5001 63.3001 16.7001C60.3001 19.7001 60.3001 22.1001 63.7001 24.7001C65.1001 25.8001 66.2001 27.1001 67.9001 28.8001C72.8001 23.2001 77.3001 18.1001 81.9001 13.0001C85.1001 9.40007 88.1001 5.70009 91.6001 2.20009C92.6001 1.30009 95.0001 0.400062 96.8001 0.300062C101.4 6.21378e-05 106.2 0.200087 111.9 0.200087C98.1001 15.9001 84.7001 31.3001 71.0001 47.0001Z" fill="#020942"/>
<path d="M0 0L51 2.59998L28.7 29.3L0 0Z" fill="#D32E27"/>
</svg>
